<svg id="visual" viewBox="0 0 1920 1080" width="1920" height="1080" xmlns="http://www.w3.org/2000/svg" xmlns:xlink="http://www.w3.org/1999/xlink" version="1.1"><path d="M0 401L29.2 388.3C58.3 375.7 116.7 350.3 174.8 344.8C233 339.3 291 353.7 349.2 359C407.3 364.3 465.7 360.7 523.8 360.7C582 360.7 640 364.3 698.2 362.7C756.3 361 814.7 354 872.8 341.5C931 329 989 311 1047.2 312.7C1105.3 314.3 1163.7 335.7 1221.8 350C1280 364.3 1338 371.7 1396.2 371.7C1454.3 371.7 1512.7 364.3 1570.8 341C1629 317.7 1687 278.3 1745.2 264C1803.3 249.7 1861.7 260.3 1890.8 265.7L1920 271L1920 0L1890.8 0C1861.7 0 1803.3 0 1745.2 0C1687 0 1629 0 1570.8 0C1512.7 0 1454.3 0 1396.2 0C1338 0 1280 0 1221.8 0C1163.7 0 1105.3 0 1047.2 0C989 0 931 0 872.8 0C814.7 0 756.3 0 698.2 0C640 0 582 0 523.8 0C465.7 0 407.3 0 349.2 0C291 0 233 0 174.8 0C116.7 0 58.3 0 29.2 0L0 0Z" fill="#333d29"></path><path d="M0 541L29.2 548.2C58.3 555.3 116.7 569.7 174.8 571.5C233 573.3 291 562.7 349.2 555.5C407.3 548.3 465.7 544.7 523.8 533.8C582 523 640 505 698.2 517.7C756.3 530.3 814.7 573.7 872.8 584.5C931 595.3 989 573.7 1047.2 559.2C1105.3 544.7 1163.7 537.3 1221.8 524.7C1280 512 1338 494 1396.2 506.7C1454.3 519.3 1512.7 562.7 1570.8 546.5C1629 530.3 1687 454.7 1745.2 425.8C1803.3 397 1861.7 415 1890.8 424L1920 433L1920 269L1890.8 263.7C1861.7 258.3 1803.3 247.7 1745.2 262C1687 276.3 1629 315.7 1570.8 339C1512.7 362.3 1454.3 369.7 1396.2 369.7C1338 369.7 1280 362.3 1221.8 348C1163.7 333.7 1105.3 312.3 1047.2 310.7C989 309 931 327 872.8 339.5C814.7 352 756.3 359 698.2 360.7C640 362.3 582 358.7 523.8 358.7C465.7 358.7 407.3 362.3 349.2 357C291 351.7 233 337.3 174.8 342.8C116.7 348.3 58.3 373.7 29.2 386.3L0 399Z" fill="#45492b"></path><path d="M0 638L29.2 661.5C58.3 685 116.7 732 174.8 742.8C233 753.7 291 728.3 349.2 712C407.3 695.7 465.7 688.3 523.8 690.2C582 692 640 703 698.2 719.3C756.3 735.7 814.7 757.3 872.8 762.7C931 768 989 757 1047.2 739C1105.3 721 1163.7 696 1221.8 683.5C1280 671 1338 671 1396.2 699.7C1454.3 728.3 1512.7 785.7 1570.8 774.8C1629 764 1687 685 1745.2 640C1803.3 595 1861.7 584 1890.8 578.5L1920 573L1920 431L1890.8 422C1861.7 413 1803.3 395 1745.2 423.8C1687 452.7 1629 528.3 1570.8 544.5C1512.7 560.7 1454.3 517.3 1396.2 504.7C1338 492 1280 510 1221.8 522.7C1163.7 535.3 1105.3 542.7 1047.2 557.2C989 571.7 931 593.3 872.8 582.5C814.7 571.7 756.3 528.3 698.2 515.7C640 503 582 521 523.8 531.8C465.7 542.7 407.3 546.3 349.2 553.5C291 560.7 233 571.3 174.8 569.5C116.7 567.7 58.3 553.3 29.2 546.2L0 539Z" fill="#5b542d"></path><path d="M0 757L29.2 775C58.3 793 116.7 829 174.8 832.7C233 836.3 291 807.7 349.2 805.8C407.3 804 465.7 829 523.8 829C582 829 640 804 698.2 818.5C756.3 833 814.7 887 872.8 901.3C931 915.7 989 890.3 1047.2 863.3C1105.3 836.3 1163.7 807.7 1221.8 798.7C1280 789.7 1338 800.3 1396.2 821.8C1454.3 843.3 1512.7 875.7 1570.8 863C1629 850.3 1687 792.7 1745.2 762.2C1803.3 731.7 1861.7 728.3 1890.8 726.7L1920 725L1920 571L1890.8 576.5C1861.7 582 1803.3 593 1745.2 638C1687 683 1629 762 1570.8 772.8C1512.7 783.7 1454.3 726.3 1396.2 697.7C1338 669 1280 669 1221.8 681.5C1163.7 694 1105.3 719 1047.2 737C989 755 931 766 872.8 760.7C814.7 755.3 756.3 733.7 698.2 717.3C640 701 582 690 523.8 688.2C465.7 686.3 407.3 693.7 349.2 710C291 726.3 233 751.7 174.8 740.8C116.7 730 58.3 683 29.2 659.5L0 636Z" fill="#755e31"></path><path d="M0 1081L29.2 1081C58.3 1081 116.7 1081 174.8 1081C233 1081 291 1081 349.2 1081C407.3 1081 465.7 1081 523.8 1081C582 1081 640 1081 698.2 1081C756.3 1081 814.7 1081 872.8 1081C931 1081 989 1081 1047.2 1081C1105.3 1081 1163.7 1081 1221.8 1081C1280 1081 1338 1081 1396.2 1081C1454.3 1081 1512.7 1081 1570.8 1081C1629 1081 1687 1081 1745.2 1081C1803.3 1081 1861.7 1081 1890.8 1081L1920 1081L1920 723L1890.8 724.7C1861.7 726.3 1803.3 729.7 1745.2 760.2C1687 790.7 1629 848.3 1570.8 861C1512.7 873.7 1454.3 841.3 1396.2 819.8C1338 798.3 1280 787.7 1221.8 796.7C1163.7 805.7 1105.3 834.3 1047.2 861.3C989 888.3 931 913.7 872.8 899.3C814.7 885 756.3 831 698.2 816.5C640 802 582 827 523.8 827C465.7 827 407.3 802 349.2 803.8C291 805.7 233 834.3 174.8 830.7C116.7 827 58.3 791 29.2 773L0 755Z" fill="#936639"></path></svg>